<?xml version="1.0" encoding="utf-8"?>
<!-- Generator: Adobe Illustrator 23.0.3, SVG Export Plug-In . SVG Version: 6.00 Build 0)  -->
<svg version="1.2" baseProfile="tiny" id="Layer_2" xmlns="http://www.w3.org/2000/svg" xmlns:xlink="http://www.w3.org/1999/xlink"
	 x="0px" y="0px" viewBox="0 0 24 24" xml:space="preserve">
<g>
	<circle cx="17.6" cy="10.2" r="0.9"/>
	<path d="M19.7,2.7h-1.3V1.8c0-0.5-0.3-0.9-0.8-0.9c-0.5,0-0.8,0.4-0.8,0.9v0.9h-4.2V1.8c0-0.5-0.3-0.9-0.8-0.9
		c-0.5,0-0.8,0.4-0.8,0.9v0.9H6.9V1.8C6.9,1.4,6.6,1,6.2,1C5.7,1,5.4,1.4,5.4,1.8v0.9H4.2c-1.9,0-3.5,1.6-3.5,3.5V20
		c0,1.9,1.6,3.5,3.5,3.5h6.7c0.5,0,0.9-0.2,0.9-0.7c0-0.5-0.4-0.7-0.9-0.7H4.2C3.2,22.2,2,21,2,20V6.2c0-1,1.2-2.2,2.2-2.2h1.2v1.3
		c0,0.5,0.3,0.9,0.8,0.9c0.5,0,0.8-0.4,0.8-0.9V4.1h4.2v1.3c0,0.5,0.3,0.9,0.8,0.9c0.5,0,0.8-0.4,0.8-0.9V4.1h4.2v1.3
		c0,0.5,0.3,0.9,0.8,0.9c0.5,0,0.8-0.4,0.8-0.9V4.1h1.3c1,0,2.2,1.2,2.2,2.2v5c0,0.5,0.2,0.9,0.7,0.9c0.5,0,0.7-0.4,0.7-0.9v-5
		C23.2,4.3,21.6,2.7,19.7,2.7z"/>
	<path d="M13.8,9.3c0.5,0,0.9,0.4,0.9,0.9c0,0.5-0.4,0.9-0.9,0.9c-0.5,0-0.9-0.4-0.9-0.9C12.9,9.7,13.3,9.3,13.8,9.3z"/>
	<path d="M10,13.2c0.5,0,0.9,0.4,0.9,0.9c0,0.5-0.4,0.9-0.9,0.9S9.1,14.5,9.1,14C9.1,13.6,9.5,13.2,10,13.2z"/>
	<path d="M6.2,9.3C6.6,9.3,7,9.7,7,10.2c0,0.5-0.4,0.9-0.9,0.9c-0.5,0-0.9-0.4-0.9-0.9C5.3,9.7,5.7,9.3,6.2,9.3z"/>
	<path d="M6.2,13.2C6.6,13.2,7,13.6,7,14c0,0.5-0.4,0.9-0.9,0.9c-0.5,0-0.9-0.4-0.9-0.9C5.3,13.6,5.7,13.2,6.2,13.2z"/>
	<path d="M6.2,17C6.6,17,7,17.4,7,17.9c0,0.5-0.4,0.9-0.9,0.9c-0.5,0-0.9-0.4-0.9-0.9C5.3,17.4,5.7,17,6.2,17z"/>
	<path d="M10,17c0.5,0,0.9,0.4,0.9,0.9c0,0.5-0.4,0.9-0.9,0.9s-0.9-0.4-0.9-0.9C9.1,17.4,9.5,17,10,17z"/>
	<circle cx="10" cy="10.2" r="0.9"/>
	<g>
		<path d="M17.6,23.5c-3,0-5.4-2.4-5.4-5.4s2.4-5.4,5.4-5.4s5.4,2.4,5.4,5.4S20.6,23.5,17.6,23.5z M17.6,14.1c-2.2,0-4,1.8-4,4
			s1.8,4,4,4s4-1.8,4-4S19.8,14.1,17.6,14.1z"/>
	</g>
	<g>
		<path d="M17.6,18.8c-0.4,0-0.7-0.3-0.7-0.7l0-3c0-0.4,0.3-0.7,0.7-0.7c0.4,0,0.7,0.3,0.7,0.7l0,3C18.3,18.5,18,18.8,17.6,18.8
			C17.6,18.8,17.6,18.8,17.6,18.8z"/>
	</g>
	<g>
		<path d="M20.4,18.8h-2.8c-0.4,0-0.7-0.3-0.7-0.7s0.3-0.7,0.7-0.7h2.8c0.4,0,0.7,0.3,0.7,0.7S20.8,18.8,20.4,18.8z"/>
	</g>
</g>
</svg>
