<?xml version="1.0" encoding="utf-8"?>
<!-- Generator: Adobe Illustrator 23.0.3, SVG Export Plug-In . SVG Version: 6.00 Build 0)  -->
<svg version="1.1" xmlns="http://www.w3.org/2000/svg" xmlns:xlink="http://www.w3.org/1999/xlink" x="0px" y="0px"
	 viewBox="0 0 24 24" style="enable-background:new 0 0 24 24;" xml:space="preserve">
<style type="text/css">
	.st0{display:none;}
	.st1{display:inline;fill:none;stroke:#000000;stroke-width:2;stroke-linecap:round;stroke-linejoin:round;}
</style>
<g id="Layer_1" class="st0">
	<path class="st1" d="M5,4h14c1.1,0,2,0.9,2,2v14c0,1.1-0.9,2-2,2H5c-1.1,0-2-0.9-2-2V6C3,4.9,3.9,4,5,4z"/>
	<line class="st1" x1="16" y1="2" x2="16" y2="6"/>
	<line class="st1" x1="8" y1="2" x2="8" y2="6"/>
	<line class="st1" x1="3" y1="10" x2="21" y2="10"/>
</g>
<g id="Layer_2">
	<g>
		<circle cx="17" cy="10.4" r="0.8"/>
		<path d="M18.8,3.8h-1.1V3.1c0-0.4-0.3-0.8-0.7-0.8s-0.7,0.3-0.7,0.8v0.8h-3.7V3.1c0-0.4-0.3-0.8-0.7-0.8c-0.4,0-0.7,0.3-0.7,0.8
			v0.8H7.5V3.1c0-0.4-0.3-0.8-0.7-0.8c-0.4,0-0.7,0.3-0.7,0.8v0.8H5.1C3.4,3.8,2,5.2,2,7v12.1c0,1.7,1.4,3.1,3.1,3.1H11
			c0.4,0,0.8-0.2,0.8-0.6c0-0.4-0.3-0.6-0.8-0.6H5.1c-0.9,0-1.9-1.1-1.9-1.9V7C3.2,6.1,4.2,5,5.1,5h1.1v1.2C6.2,6.6,6.4,7,6.8,7
			c0.4,0,0.7-0.3,0.7-0.8V5h3.7v1.2c0,0.4,0.3,0.8,0.7,0.8c0.4,0,0.7-0.3,0.7-0.8V5h3.7v1.2C16.3,6.6,16.5,7,17,7s0.7-0.3,0.7-0.8V5
			h1.1c0.9,0,1.9,1.1,1.9,1.9v4.4c0,0.4,0.2,0.8,0.6,0.8c0.4,0,0.6-0.3,0.6-0.8V7C21.9,5.2,20.5,3.8,18.8,3.8z"/>
		<path d="M13.6,9.7c0.4,0,0.8,0.3,0.8,0.8c0,0.4-0.3,0.8-0.8,0.8c-0.4,0-0.8-0.3-0.8-0.8C12.8,10,13.2,9.7,13.6,9.7z"/>
		<path d="M10.2,13.1c0.4,0,0.8,0.3,0.8,0.8s-0.3,0.8-0.8,0.8s-0.8-0.3-0.8-0.8S9.8,13.1,10.2,13.1z"/>
		<path d="M6.8,9.7c0.4,0,0.8,0.3,0.8,0.8c0,0.4-0.3,0.8-0.8,0.8c-0.4,0-0.8-0.3-0.8-0.8C6.1,10,6.4,9.7,6.8,9.7z"/>
		<path d="M6.8,13.1c0.4,0,0.8,0.3,0.8,0.8s-0.3,0.8-0.8,0.8c-0.4,0-0.8-0.3-0.8-0.8S6.4,13.1,6.8,13.1z"/>
		<path d="M6.8,16.4c0.4,0,0.8,0.3,0.8,0.8c0,0.4-0.3,0.8-0.8,0.8c-0.4,0-0.8-0.3-0.8-0.8C6.1,16.8,6.4,16.4,6.8,16.4z"/>
		<path d="M10.2,16.4c0.4,0,0.8,0.3,0.8,0.8c0,0.4-0.3,0.8-0.8,0.8s-0.8-0.3-0.8-0.8C9.4,16.8,9.8,16.4,10.2,16.4z"/>
		<circle cx="10.2" cy="10.4" r="0.8"/>
		<g>
			<path d="M16.9,22.2c-2.6,0-4.8-2.1-4.8-4.8s2.1-4.8,4.8-4.8s4.8,2.1,4.8,4.8S19.5,22.2,16.9,22.2z M16.9,13.9
				c-1.9,0-3.5,1.6-3.5,3.5s1.6,3.5,3.5,3.5s3.5-1.6,3.5-3.5S18.9,13.9,16.9,13.9z"/>
		</g>
		<g>
			<path d="M16.9,18c-0.3,0-0.6-0.3-0.6-0.6l0-2.7c0-0.3,0.3-0.6,0.6-0.6c0.3,0,0.6,0.3,0.6,0.6l0,2.7C17.5,17.8,17.3,18,16.9,18
				C16.9,18,16.9,18,16.9,18z"/>
		</g>
		<g>
			<path d="M19.4,18.1H17c-0.3,0-0.6-0.3-0.6-0.6s0.3-0.6,0.6-0.6h2.4c0.3,0,0.6,0.3,0.6,0.6S19.8,18.1,19.4,18.1z"/>
		</g>
	</g>
</g>
</svg>
