<?xml version="1.0" encoding="UTF-8"?>
<svg width="415px" height="275px" viewBox="0 0 415 275" version="1.1" xmlns="http://www.w3.org/2000/svg" xmlns:xlink="http://www.w3.org/1999/xlink">
    <title>joystick</title>
    <g id="App" stroke="none" stroke-width="1" fill="none" fill-rule="evenodd">
        <g id="Artboard" transform="translate(-2.000000, -5.000000)" fill="#000000" fill-rule="nonzero">
            <g id="joystick" transform="translate(2.000000, 5.000000)">
                <path d="M414.780166,189.034689 C413.761312,165.568572 409.685897,139.551791 403.572775,115.065408 C397.459653,91.5992912 389.81825,69.6635734 380.648567,52.8291853 C344.988688,-9.91717027 303.272247,-3.2246438 256.914404,9.01854754 C242.141026,12.5894783 226.348793,16.6705421 210.047134,18.200941 L204.952866,18.200941 C188.651207,16.6705421 172.858974,12.5894783 158.085596,9.01854754 C111.727753,-2.71451082 70.0113123,-9.91717027 34.351433,53.3393183 C25.1817497,70.1737064 17.0309202,92.1094242 11.4272249,115.575541 C5.31410268,140.061924 1.2386879,166.078705 0.219834209,189.544822 C-0.799019485,215.561604 2.74811475,235.436524 8.35181007,248.699981 C13.9555054,260.943172 24.106335,270.595167 34.8042987,273.655965 C44.4834088,276.206629 57.6907995,274.186363 69.407617,269.085034 C89.275264,260.922906 112.199472,243.578385 134.614253,222.662933 C150.406486,207.358944 177.953243,200.70695 207.5,200.70695 C237.046757,200.70695 263.593514,206.358944 279.385747,221.662933 C301.800528,242.578385 325.724736,261.922906 345.592383,270.085034 C357.309201,274.676231 370.516591,275.206629 380.195701,272.655965 C390.384238,269.595167 402.044495,260.453305 407.64819,247.189848 C413.251885,234.436524 415.799019,215.561604 414.780166,189.034689 Z M387.327677,240.047986 C384.271116,247.189848 380.195701,251.270912 375.101433,252.801311 C369.497737,254.331709 362.365762,253.311444 354.214932,250.250646 C336.384992,243.108784 315.498492,227.294662 295.121418,207.909609 C275.763198,188.524556 241.631599,178.83203 207.5,178.83203 C173.368401,178.83203 139.236802,188.524556 119.369155,206.889343 C98.4826547,226.274396 77.5961539,242.598651 60.2756411,249.23038 C52.1248116,252.291178 44.9928357,253.821576 39.3891404,251.781045 C34.2948719,250.250646 30.2194571,246.169582 27.162896,239.02772 C23.0874813,229.335194 21.0497739,213.521072 22.0686276,190.054955 C23.0874813,168.119237 26.6534692,143.122721 32.7665914,119.656605 C38.3702867,97.7208869 45.5022625,77.315568 54.1625189,62.0115788 C82.1809955,11.5084146 114.784314,19.6705421 153.500754,29.8732016 C169.292986,33.9542654 185.594646,38.0353291 203.424585,39.5657281 C203.934012,39.5657281 203.934012,39.5657281 204.443439,39.5657281 L210.047134,39.5657281 C210.556561,39.5657281 210.556561,39.5657281 211.065988,39.5657281 C229.405354,38.0353291 245.707014,33.9542654 261.499246,29.8732016 C300.215686,20.1806751 332.819004,11.5084146 360.837481,62.0115788 C369.497737,77.315568 376.629713,97.2107539 382.233409,119.656605 C387.837104,143.122721 391.912519,167.609104 392.931372,190.054955 C393.950226,213.521072 391.912519,229.335194 387.327677,240.047986 Z" id="Shape"></path>
                <path d="M160.309417,89.6306306 C155.197309,85.0495495 149.06278,81.4864865 141.90583,80.9774775 C141.394619,74.3603604 138.327354,67.7432432 133.726457,63.1621622 L133.215247,62.6531532 C127.591928,57.0540541 120.434978,54 112.255605,54 C104.076233,54 96.4080717,57.5630631 91.2959641,62.6531532 C86.6950673,67.2342342 83.1165919,73.8513514 82.6053812,80.9774775 C75.4484305,81.4864865 69.3139013,84.5405405 64.2017937,89.1216216 L63.690583,89.6306306 C58.0672646,95.2297297 55,102.355856 55,110.5 C55,118.644144 58.5784753,126.279279 63.690583,131.369369 C68.8026906,136.459459 74.9372197,139.513514 82.6053812,140.022523 C83.1165919,147.148649 86.1838565,153.765766 91.2959641,158.346847 C96.9192825,163.945946 104.076233,167 112.255605,167 C120.434978,167 128.103139,163.436937 133.215247,158.346847 C137.816143,153.256757 141.394619,147.148649 141.90583,140.022523 C149.06278,139.513514 155.70852,136.459459 160.309417,131.369369 C165.932735,125.77027 169,118.644144 169,110.5 C169,102.355856 165.421525,94.7207207 160.309417,89.6306306 Z M147.529148,118.135135 C145.484305,120.171171 142.928251,121.189189 139.860987,121.189189 L132.704036,121.189189 C127.591928,121.189189 122.991031,125.261261 122.991031,130.86036 L122.991031,137.477477 C122.991031,140.531532 121.96861,143.076577 119.923767,145.112613 C117.878924,147.148649 115.32287,148.166667 112.255605,148.166667 C109.188341,148.166667 106.632287,147.148649 104.587444,145.112613 C102.542601,143.076577 101.520179,140.531532 101.520179,137.477477 L101.520179,130.351351 C101.520179,125.261261 97.4304933,120.68018 91.8071749,120.68018 L84.6502242,120.68018 C81.5829596,120.68018 79.0269058,119.662162 76.9820628,117.626126 C75.4484305,116.099099 73.9147982,113.554054 73.9147982,110.5 C73.9147982,107.445946 74.9372197,104.900901 76.9820628,102.864865 C76.9820628,102.864865 76.9820628,102.864865 77.4932735,102.355856 C79.5381166,100.828829 82.0941704,99.8108108 84.6502242,99.8108108 L91.8071749,99.8108108 C96.9192825,99.8108108 101.520179,95.7387387 101.520179,90.1396396 L101.520179,83.0135135 C101.520179,79.9594595 102.542601,77.4144144 104.587444,75.3783784 C106.632287,73.3423423 109.188341,72.3243243 112.255605,72.3243243 C115.32287,72.3243243 117.878924,73.3423423 119.923767,75.3783784 C119.923767,75.3783784 119.923767,75.3783784 120.434978,75.8873874 C121.96861,77.9234234 122.991031,80.4684685 122.991031,83.0135135 L122.991031,90.1396396 C122.991031,95.2297297 127.080717,99.8108108 132.704036,99.8108108 L139.860987,99.8108108 C142.928251,99.8108108 145.484305,100.828829 147.529148,102.864865 C149.573991,104.900901 150.596413,107.445946 150.596413,110.5 C150.596413,113.554054 149.573991,116.099099 147.529148,118.135135 Z" id="Shape"></path>
                <circle id="Oval" cx="296" cy="74" r="18"></circle>
                <circle id="Oval" cx="296" cy="147" r="18"></circle>
                <circle id="Oval" cx="260" cy="110" r="18"></circle>
                <circle id="Oval" cx="332" cy="110" r="18"></circle>
            </g>
        </g>
    </g>
</svg>